<svg width="44" height="44" viewBox="0 0 44 44" fill="none" xmlns="http://www.w3.org/2000/svg">
<path d="M15.2292 22C15.2292 18.2606 18.2606 15.2292 22 15.2292C25.7394 15.2292 28.7708 18.2606 28.7708 22C28.7708 25.7394 25.7394 28.7708 22 28.7708C18.2606 28.7708 15.2292 25.7394 15.2292 22Z" fill="white"/>
<path fill-rule="evenodd" clip-rule="evenodd" d="M20.8765 0.830235C21.4907 0.194731 22.5093 0.194731 23.1235 0.830235L28.4825 6.375H36.0625C36.9255 6.375 37.625 7.07455 37.625 7.9375V15.5175L43.1698 20.8765C43.8053 21.4907 43.8053 22.5093 43.1698 23.1235L37.625 28.4825V36.0625C37.625 36.9254 36.9255 37.625 36.0625 37.625H28.4825L23.1235 43.1698C22.5093 43.8053 21.4907 43.8053 20.8765 43.1698L15.5175 37.625H7.93753C7.07459 37.625 6.37503 36.9254 6.37503 36.0625V28.4825L0.830265 23.1235C0.194763 22.5093 0.194762 21.4907 0.830263 20.8765L6.37503 15.5175V7.9375C6.37503 7.07455 7.07458 6.375 7.93753 6.375H15.5175L20.8765 0.830235ZM22 12.1042C16.5347 12.1042 12.1042 16.5347 12.1042 22C12.1042 27.4653 16.5347 31.8958 22 31.8958C27.4653 31.8958 31.8958 27.4653 31.8958 22C31.8958 16.5347 27.4653 12.1042 22 12.1042Z" fill="white"/>
</svg>
