<svg width="15" height="23" viewBox="0 0 15 23" fill="none" xmlns="http://www.w3.org/2000/svg">
<path d="M3.33325 4.20833C3.33325 3.10326 3.77224 2.04345 4.55364 1.26205C5.33504 0.480651 6.39485 0.0416641 7.49992 0.0416641C8.60499 0.0416641 9.6648 0.480651 10.4462 1.26205C11.2276 2.04345 11.6666 3.10326 11.6666 4.20833V9.68229C12.9405 10.5693 13.8981 11.8398 14.4 13.3088C14.9019 14.7778 14.9218 16.3686 14.457 17.8497C13.9921 19.3309 13.0667 20.625 11.8154 21.5437C10.5641 22.4624 9.05227 22.9579 7.49992 22.9579C5.94756 22.9579 4.43572 22.4624 3.18444 21.5437C1.93315 20.625 1.00773 19.3309 0.542867 17.8497C0.0780042 16.3686 0.0979631 14.7778 0.599838 13.3088C1.10171 11.8398 2.05931 10.5693 3.33325 9.68229V4.20833ZM4.52492 11.3906C3.61468 12.0241 2.93038 12.9315 2.57164 13.9808C2.2129 15.0301 2.19844 16.1665 2.53038 17.2247C2.86231 18.2828 3.52331 19.2073 4.41714 19.8637C5.31097 20.5201 6.39097 20.874 7.49992 20.874C8.60887 20.874 9.68887 20.5201 10.5827 19.8637C11.4765 19.2073 12.1375 18.2828 12.4695 17.2247C12.8014 16.1665 12.7869 15.0301 12.4282 13.9808C12.0695 12.9315 11.3852 12.0241 10.4749 11.3906L9.58325 10.7687V4.20833C9.58325 3.6558 9.36376 3.12589 8.97306 2.73519C8.58236 2.34449 8.05245 2.125 7.49992 2.125C6.94738 2.125 6.41748 2.34449 6.02678 2.73519C5.63608 3.12589 5.41659 3.6558 5.41659 4.20833V10.7687L4.52492 11.3906ZM6.45825 11.6312V4.20833H8.54159V11.6312C9.52126 11.8872 10.3743 12.491 10.9414 13.3299C11.5085 14.1687 11.7509 15.1853 11.6233 16.1898C11.4957 17.1943 11.0069 18.118 10.2481 18.7885C9.48935 19.459 8.51248 19.8304 7.49992 19.8333C6.48506 19.8343 5.50472 19.4649 4.74291 18.7944C3.9811 18.1239 3.4902 17.1984 3.36234 16.1916C3.23447 15.1848 3.47845 14.166 4.04847 13.3264C4.61849 12.4867 5.47536 11.884 6.45825 11.6312ZM7.49992 17.75C8.05245 17.75 8.58236 17.5305 8.97306 17.1398C9.36376 16.7491 9.58325 16.2192 9.58325 15.6667C9.58325 15.1141 9.36376 14.5842 8.97306 14.1935C8.58236 13.8028 8.05245 13.5833 7.49992 13.5833C6.94738 13.5833 6.41748 13.8028 6.02678 14.1935C5.63608 14.5842 5.41659 15.1141 5.41659 15.6667C5.41659 16.2192 5.63608 16.7491 6.02678 17.1398C6.41748 17.5305 6.94738 17.75 7.49992 17.75Z" fill="white"/>
</svg>
