<svg width="50" height="50" viewBox="0 0 50 50" fill="none" xmlns="http://www.w3.org/2000/svg">
<path d="M6.47222 4.44445L7.01389 4.98611C7.55556 5.51389 7.55556 6.40278 7.01389 6.93056L7 6.94445C6.45833 7.48611 5.59722 7.48611 5.05556 6.94445L4.51389 6.40278C3.97222 5.875 3.97222 5 4.51389 4.45833L4.52778 4.44445C5.05556 3.91667 5.93056 3.90278 6.47222 4.44445Z" fill="white"/>
<path d="M1.375 13.8194H2.79167C3.55556 13.8194 4.16667 14.4306 4.16667 15.2083V15.2222C4.16667 15.9861 3.55556 16.5972 2.77778 16.5833H1.375C0.611111 16.5833 0 15.9722 0 15.2083V15.1944C0 14.4306 0.611111 13.8194 1.375 13.8194Z" fill="white"/>
<path d="M15.2778 0H15.2917C16.0556 0 16.6667 0.611111 16.6667 1.375V2.72222C16.6667 3.48611 16.0556 4.09722 15.2778 4.08333H15.2639C14.5 4.08333 13.8889 3.47222 13.8889 2.70833V1.375C13.8889 0.611111 14.5 0 15.2778 0Z" fill="white"/>
<path d="M24.0833 4.44445C24.625 3.91667 25.5 3.91667 26.0417 4.45833C26.5833 5 26.5833 5.86111 26.0417 6.40278L25.5 6.94445C24.9722 7.48611 24.0972 7.48611 23.5556 6.94445L23.5417 6.93056C23 6.40278 23 5.52778 23.5417 4.98611L24.0833 4.44445Z" fill="white"/>
<path d="M6.94444 15.2083C6.94444 10.6111 10.6806 6.875 15.2778 6.875C18.4333 6.875 21.1831 8.63524 22.5975 11.226C20.9849 12.6599 19.7799 14.5423 19.1783 16.6775C19.0364 16.6703 18.8936 16.6667 18.75 16.6667C15.1002 16.6667 11.9984 19.0131 10.8708 22.2797C8.51423 20.8064 6.94444 18.1883 6.94444 15.2083Z" fill="white"/>
<path d="M6.47222 25.9583C5.93056 26.5 5.05556 26.5 4.51389 25.9583C3.97222 25.4167 3.97222 24.5556 4.5 24L5.04167 23.4583C5.58333 22.9167 6.45833 22.9167 7 23.4583L7.01389 23.4722C7.54167 24 7.55556 24.875 7.01389 25.4167L6.47222 25.9583Z" fill="white"/>
<path d="M41.6667 39.5833H14.5833C11.1316 39.5833 8.33333 36.7851 8.33333 33.3333C8.33333 30.6093 10.076 28.2923 12.5073 27.4364C12.5025 27.3193 12.5 27.2016 12.5 27.0833C12.5 22.481 16.231 18.75 20.8333 18.75C20.977 18.75 21.1197 18.7536 21.2616 18.7608C22.6183 13.9459 27.0428 10.4167 32.2917 10.4167C38.6199 10.4167 43.75 15.5467 43.75 21.875C43.75 22.3098 43.7258 22.739 43.6786 23.1612C47.309 24.0612 50 27.3413 50 31.25C50 35.8524 46.269 39.5833 41.6667 39.5833Z" fill="white"/>
<path d="M20.8029 47.9775L23.5721 42.4392C23.8088 41.9657 24.2927 41.6667 24.8221 41.6667C25.861 41.6667 26.5367 42.76 26.0721 43.6892L23.3029 49.2275C23.0662 49.7009 22.5823 50 22.0529 50C21.014 50 20.3383 48.9067 20.8029 47.9775Z" fill="white"/>
<path d="M27.0529 47.9775L29.8221 42.4392C30.0588 41.9657 30.5427 41.6667 31.0721 41.6667C32.111 41.6667 32.7867 42.76 32.3221 43.6892L29.5529 49.2275C29.3162 49.7009 28.8323 50 28.3029 50C27.264 50 26.5883 48.9067 27.0529 47.9775Z" fill="white"/>
</svg>
