<svg width="22" height="20" viewBox="0 0 22 20" fill="none" xmlns="http://www.w3.org/2000/svg">
<path d="M3.88532 14.4628H17.3215C19.6047 14.4628 21.4557 12.6118 21.4557 10.3286C21.4557 8.38945 20.1207 6.76216 18.3196 6.31565C18.343 6.10619 18.355 5.89328 18.355 5.67757C18.355 2.53809 15.81 -0.00695753 12.6705 -0.00695753C10.0665 -0.00695753 7.8715 1.74391 7.19844 4.13261C7.12807 4.12905 7.05723 4.12725 6.98598 4.12725C4.70272 4.12725 2.85177 5.97819 2.85177 8.26145C2.85177 8.32013 2.85299 8.37852 2.85541 8.4366C1.64922 8.86123 0.784668 10.0107 0.784668 11.3621C0.784668 13.0746 2.17288 14.4628 3.88532 14.4628Z" fill="white" fill-opacity="0.6"/>
<path d="M6.38092 15.4963C6.11831 15.4963 5.87824 15.6447 5.76079 15.8796L4.38702 18.6271C4.15652 19.0881 4.49174 19.6305 5.00715 19.6305C5.26976 19.6305 5.50984 19.4821 5.62728 19.2473L7.00106 16.4997C7.23155 16.0387 6.89633 15.4963 6.38092 15.4963Z" fill="white" fill-opacity="0.6"/>
<path d="M9.48158 15.4963C9.99699 15.4963 10.3322 16.0387 10.1017 16.4997L8.72793 19.2473C8.61049 19.4821 8.37042 19.6305 8.1078 19.6305C7.5924 19.6305 7.25718 19.0881 7.48767 18.6271L8.86145 15.8796C8.97889 15.6447 9.21897 15.4963 9.48158 15.4963Z" fill="white" fill-opacity="0.6"/>
<path d="M15.6829 15.4963C16.1983 15.4963 16.5335 16.0387 16.303 16.4997L14.9292 19.2473C14.8118 19.4821 14.5717 19.6305 14.3091 19.6305C13.7937 19.6305 13.4585 19.0881 13.689 18.6271L15.0628 15.8796C15.1802 15.6447 15.4203 15.4963 15.6829 15.4963Z" fill="white" fill-opacity="0.6"/>
<path d="M12.5822 15.4963C13.0976 15.4963 13.4329 16.0387 13.2024 16.4997L11.8286 19.2473C11.7111 19.4821 11.4711 19.6305 11.2085 19.6305C10.6931 19.6305 10.3578 19.0881 10.5883 18.6271L11.9621 15.8796C12.0795 15.6447 12.3196 15.4963 12.5822 15.4963Z" fill="white" fill-opacity="0.6"/>
</svg>
