<svg width="27" height="27" viewBox="0 0 27 27" fill="none" xmlns="http://www.w3.org/2000/svg">
<path d="M3.74054 2.71119L4.02846 2.9991C4.31638 3.27964 4.31638 3.75212 4.02846 4.03266L4.02108 4.04004C3.73316 4.32796 3.27544 4.32796 2.98753 4.04004L2.69961 3.75212C2.41169 3.47159 2.41169 3.00649 2.69961 2.71857L2.70699 2.71119C2.98753 2.43065 3.45262 2.42327 3.74054 2.71119Z" fill="white" fill-opacity="0.8"/>
<path d="M1.03116 7.69438H1.78418C2.19022 7.69438 2.51505 8.01921 2.51505 8.43263V8.44001C2.51505 8.84605 2.19022 9.17088 1.77679 9.1635H1.03116C0.625123 9.1635 0.300293 8.83867 0.300293 8.43263V8.42525C0.300293 8.01921 0.625123 7.69438 1.03116 7.69438Z" fill="white" fill-opacity="0.8"/>
<path d="M8.42105 0.348783H8.42844C8.83447 0.348783 9.1593 0.673614 9.1593 1.07965V1.79576C9.1593 2.20179 8.83447 2.52662 8.42105 2.51924H8.41367C8.00763 2.51924 7.6828 2.19441 7.6828 1.78837V1.07965C7.6828 0.673614 8.00763 0.348783 8.42105 0.348783Z" fill="white" fill-opacity="0.8"/>
<path d="M13.1016 2.71119C13.3895 2.43065 13.8546 2.43065 14.1425 2.71857C14.4304 3.00649 14.4304 3.4642 14.1425 3.75212L13.8546 4.04004C13.574 4.32796 13.1089 4.32796 12.821 4.04004L12.8136 4.03266C12.5257 3.75212 12.5257 3.28702 12.8136 2.9991L13.1016 2.71119Z" fill="white" fill-opacity="0.8"/>
<path d="M3.99155 8.43263C3.99155 5.98902 5.97744 4.00313 8.42105 4.00313C10.0983 4.00313 11.56 4.93877 12.3118 6.31584C11.4546 7.07801 10.8141 8.07858 10.4943 9.21354C10.4189 9.20973 10.343 9.2078 10.2667 9.2078C8.32665 9.2078 6.67793 10.455 6.07856 12.1913C4.82595 11.4082 3.99155 10.0166 3.99155 8.43263Z" fill="white" fill-opacity="0.8"/>
<path d="M3.74054 14.1467C3.45262 14.4346 2.98753 14.4346 2.69961 14.1467C2.41169 13.8588 2.41169 13.4011 2.69223 13.1058L2.98014 12.8178C3.26806 12.5299 3.73316 12.5299 4.02108 12.8178L4.02846 12.8252C4.309 13.1058 4.31638 13.5709 4.02846 13.8588L3.74054 14.1467Z" fill="white" fill-opacity="0.8"/>
<path d="M22.4478 21.3889H8.05193C6.21717 21.3889 4.7298 19.9016 4.7298 18.0668C4.7298 16.6189 5.65611 15.3873 6.94845 14.9323C6.94586 14.8701 6.94455 14.8075 6.94455 14.7447C6.94455 12.2983 8.92771 10.3152 11.3741 10.3152C11.4504 10.3152 11.5263 10.3171 11.6017 10.3209C12.3228 7.7616 14.6747 5.88567 17.4646 5.88567C20.8284 5.88567 23.5552 8.61251 23.5552 11.9762C23.5552 12.2074 23.5423 12.4355 23.5173 12.6599C25.447 13.1383 26.8773 14.8818 26.8773 16.9594C26.8773 19.4058 24.8942 21.3889 22.4478 21.3889Z" fill="white" fill-opacity="0.8"/>
<path d="M11.3579 25.8508L12.8298 22.907C12.9556 22.6553 13.2129 22.4963 13.4942 22.4963C14.0465 22.4963 14.4056 23.0775 14.1587 23.5714L12.6868 26.5152C12.5609 26.7668 12.3037 26.9258 12.0223 26.9258C11.4701 26.9258 11.1109 26.3447 11.3579 25.8508Z" fill="white" fill-opacity="0.8"/>
<path d="M14.68 25.8508L16.1519 22.907C16.2778 22.6553 16.535 22.4963 16.8164 22.4963C17.3686 22.4963 17.7277 23.0775 17.4808 23.5714L16.0089 26.5152C15.883 26.7668 15.6258 26.9258 15.3445 26.9258C14.7922 26.9258 14.4331 26.3447 14.68 25.8508Z" fill="white" fill-opacity="0.8"/>
</svg>
