<svg width="32" height="25" viewBox="0 0 32 25" fill="none" xmlns="http://www.w3.org/2000/svg">
<path d="M5.09343 3.66122L4.75752 3.33491C4.42162 3.00861 3.879 3.01697 3.55171 3.33491L3.5431 3.34328C3.20719 3.66959 3.20719 4.1967 3.5431 4.51464L3.879 4.84095C4.21491 5.16725 4.74891 5.16725 5.08481 4.84095L5.09343 4.83258C5.42933 4.51464 5.42933 3.97916 5.09343 3.66122Z" fill="white"/>
<path d="M2.4751 8.98253H1.59658C1.12287 8.98253 0.743896 9.35067 0.743896 9.81085V9.81922C0.743896 10.2794 1.12287 10.6475 1.59658 10.6475H2.46648C2.94881 10.6559 3.32778 10.2878 3.32778 9.82758V9.81922C3.32778 9.35067 2.94881 8.98253 2.4751 8.98253Z" fill="white"/>
<path d="M10.2267 0.657522H10.2181C9.73579 0.657522 9.35683 1.02566 9.35683 1.48584V2.28906C9.35683 2.74923 9.73579 3.11737 10.2095 3.11737H10.2181C10.7004 3.12574 11.0794 2.7576 11.0794 2.29742V1.48584C11.0794 1.02566 10.7004 0.657522 10.2267 0.657522Z" fill="white"/>
<path d="M16.8931 3.34328C16.5572 3.01697 16.0146 3.01697 15.6787 3.33491L15.3428 3.66122C15.0069 3.98753 15.0069 4.51464 15.3428 4.83258L15.3514 4.84095C15.6873 5.16725 16.2299 5.16725 16.5572 4.84095L16.8931 4.51464C17.229 4.18833 17.229 3.66959 16.8931 3.34328Z" fill="white"/>
<path d="M10.2181 4.79911C7.36724 4.79911 5.05036 7.04979 5.05036 9.81922C5.05036 11.6144 6.02383 13.1916 7.4852 14.0791C8.18447 12.1112 10.108 10.6977 12.3713 10.6977C12.4604 10.6977 12.549 10.6999 12.6369 10.7043C13.01 9.41796 13.7573 8.28398 14.7573 7.42019C13.8802 5.8595 12.175 4.79911 10.2181 4.79911Z" fill="white"/>
<path d="M3.5431 16.2952C3.879 16.6215 4.42162 16.6215 4.75752 16.2952L5.09343 15.9689C5.42933 15.6425 5.42072 15.1154 5.09343 14.7975L5.08481 14.7891C4.74891 14.4628 4.20629 14.4628 3.87039 14.7891L3.53449 15.1154C3.20719 15.4501 3.20719 15.9689 3.5431 16.2952Z" fill="white"/>
<path d="M9.78747 24.503H26.5827C29.4368 24.503 31.7504 22.2555 31.7504 19.4829C31.7504 17.1283 30.0817 15.1523 27.8304 14.6101C27.8596 14.3558 27.8746 14.0972 27.8746 13.8353C27.8746 10.0231 24.6933 6.93266 20.769 6.93266C17.514 6.93266 14.7702 9.05871 13.9289 11.9593C13.8409 11.955 13.7524 11.9528 13.6633 11.9528C10.8092 11.9528 8.49553 14.2003 8.49553 16.9729C8.49553 17.0441 8.49706 17.115 8.50009 17.1856C6.99235 17.7012 5.91165 19.097 5.91165 20.7379C5.91165 22.8173 7.64692 24.503 9.78747 24.503Z" fill="white"/>
</svg>
